<svg xmlns="http://www.w3.org/2000/svg" version="1.1" xmlns:xlink="http://www.w3.org/1999/xlink" xmlns:svgjs="http://svgjs.dev/svgjs" width="100%" height="100%" viewBox="0 0 1000 600"><rect width="1000" height="600" x="0" y="0" fill="#1a2e05"/><g><circle r="166.66666666666666" cx="447.99332682291663" cy="470.2155443828801" fill="#365314" transform="matrix(0.44432333547973907,0,0,0.444323335479739,0,91.07225188559605)"/><path d="M493.0083588475761 545.2155509120747L480.8941307611001 511.66845774952566L415.092529566817 511.66845774952566L402.978301480341 545.2155509120747L382.2067590293361 545.2155509120747L436.735815478139 395.21555549888495L459.46126568502706 395.21555549888495L513.779901298581 545.2155509120747L493.0083588475761 545.2155509120747ZM420.7137718798965 495.6464141512831L475.27288844802064 495.6464141512831L447.9783001042979 419.47407179115834L420.7137718798965 495.6464141512831Z " fill="#ffffff" transform="matrix(0.44432333547973907,0,0,0.444323335479739,0,91.07225188559605)"/><path d="M697.9933268425268 489.69607633843486Q697.9933268425268 473.32702944022947 704.5950581535385 460.96231137001485Q711.2238457404151 448.5975932998002 722.8309880864153 441.77941178187007Q734.4110741565507 434.96123026393985 748.6426752614367 434.96123026393985L748.6426752614367 434.96123026393985Q762.6578261594043 434.96123026393985 772.9933235397588 440.9947797817908Q783.3017646442485 447.02832929964165 788.3612882309665 456.17335054194484L788.3612882309665 456.17335054194484L788.3612882309665 436.6928319192872L806.2995991293303 436.6928319192872L806.2995991293303 543.456896481797L788.3612882309665 543.456896481797L788.3612882309665 523.5975899970322Q783.1123707131949 532.932005170389 772.6957045052459 539.073779791699Q762.2790382972971 545.2155544130092 748.4262250545182 545.2155544130092L748.4262250545182 545.2155544130092Q734.221680225497 545.2155544130092 722.722762982956 538.2079789640254Q711.2238457404151 531.1733472391768 704.5950581535385 518.5110101344493Q697.9933268425268 505.84867302972185 697.9933268425268 489.69607633843486L697.9933268425268 489.69607633843486ZM788.3612882309665 489.8854702694885Q788.3612882309665 477.8183712337867 783.491158575302 468.83568764667234Q778.6210289196376 459.88006033542274 770.3418085050082 455.11815578321756Q762.0625880903787 450.32919495514756 752.1329348479962 450.32919495514756L752.1329348479962 450.32919495514756Q742.2032816056137 450.32919495514756 734.0322862944435 455.0099306797583Q725.8342347074083 459.69066640436915 720.9641050517439 468.6462937156187Q716.0939753960795 477.60192102686824 716.0939753960795 489.69607633843486L716.0939753960795 489.69607633843486Q716.0939753960795 501.9525693051903 720.9641050517439 511.0164217198991Q725.8342347074083 520.0802741346079 734.0322862944435 524.8421786868131Q742.2032816056137 529.6311395148831 752.1329348479962 529.6311395148831L752.1329348479962 529.6311395148831Q762.0625880903787 529.6311395148831 770.3418085050082 524.8421786868131Q778.6210289196376 520.0802741346079 783.491158575302 511.0164217198991Q788.3612882309665 501.9525693051903 788.3612882309665 489.8854702694885L788.3612882309665 489.8854702694885ZM874.0755701706602 545.2155544130092Q861.8190772039047 545.2155544130092 852.0788178925759 541.0218316539648Q842.3385585812471 536.8281088949204 836.6837969255033 529.3335204803702Q831.0290352697597 521.83893206582 830.4608534765988 512.0986727544912L830.4608534765988 512.0986727544912L848.7508959612052 512.0986727544912Q849.5355279612844 520.0802741346079 856.2725406516201 525.1397977213259Q862.9824970660911 530.1993213080439 873.8861762396065 530.1993213080439L873.8861762396065 530.1993213080439Q884.0322796889074 530.1993213080439 889.8764352757046 525.7350357903515Q895.7205908625019 521.2436939967944 895.7205908625019 514.4255124788642L895.7205908625019 514.4255124788642Q895.7205908625019 507.41793702988036 889.4705911377326 504.0088462709153Q883.247647688828 500.5997555119502 870.1794664461286 497.29888985644436L870.1794664461286 497.29888985644436Q858.3017613414804 494.1603618561273 850.8071729269301 490.9677213040806Q843.3125845123799 487.7480244761691 837.955441891149 481.4168559238054Q832.5982992699182 475.0856873714416 832.5982992699182 464.75018999108715L832.5982992699182 464.75018999108715Q832.5982992699182 456.5791946799169 837.4684289255827 449.7610131619867Q842.3385585812471 442.9428316440565 851.2941858924966 438.9385028160658Q860.2498132037462 434.96123026393985 871.748730446287 434.96123026393985L871.748730446287 434.96123026393985Q889.4705911377326 434.96123026393985 900.374270311248 443.9168575751894Q911.3050057606281 452.872484886439 912.0625814848426 468.45689978456505L912.0625814848426 468.45689978456505L894.340720793397 468.45689978456505Q893.7725390002362 460.0694542664764 887.6307643789261 455.0099306797583Q881.488989757616 449.9504070930403 871.1534923772615 449.9504070930403L871.1534923772615 449.9504070930403Q861.629683272851 449.9504070930403 855.9749216171074 454.03590474862546Q850.3201599613637 458.1214024042106 850.3201599613637 464.75018999108715L850.3201599613637 464.75018999108715Q850.3201599613637 470.0261637847236 853.7292507203288 473.4352545436887Q857.1383414792939 476.8443453026538 862.3060901694711 478.873565992514Q867.4738388596484 480.92984295823896 876.6188601019516 483.4460766136656L876.6188601019516 483.4460766136656Q888.1177773444925 486.5846046139826 895.3147467245299 489.5878512349757Q902.5387723804322 492.61815413183353 907.6794647947445 498.65170364968446Q912.8472134849218 504.68525316753534 913.0366074159754 514.4255124788642L913.0366074159754 514.4255124788642Q913.0366074159754 523.1917458590601 908.166477760311 530.1993213080439Q903.2963481046465 537.2339530328925 894.4489458968562 541.2112255850184Q885.5744874132012 545.2155544130092 874.0755701706602 545.2155544130092L874.0755701706602 545.2155544130092ZM947.1275150056263 419.37681536581374Q942.0679914189083 419.37681536581374 938.5777318323487 415.85949950338943Q935.0604159699244 412.3421836409651 935.0604159699244 407.2826600542471L935.0604159699244 407.2826600542471Q935.0604159699244 402.22313646752906 938.5777318323487 398.70582060510475Q942.0679914189083 395.2155610185453 947.1275150056263 395.2155610185453L947.1275150056263 395.2155610185453Q951.9976446612907 395.2155610185453 955.4067354202558 398.70582060510475Q958.815826179221 402.22313646752906 958.815826179221 407.2826600542471L958.815826179221 407.2826600542471Q958.815826179221 412.3421836409651 955.4067354202558 415.85949950338943Q951.9976446612907 419.37681536581374 947.1275150056263 419.37681536581374L947.1275150056263 419.37681536581374ZM937.9824937633232 436.6928319192872L955.7043544547687 436.6928319192872L955.7043544547687 543.456896481797L937.9824937633232 543.456896481797L937.9824937633232 436.6928319192872ZM1083.3017514331762 485.98936654495697Q1083.3017514331762 491.04889013167497 1082.7335696400155 496.70365178741866L1082.7335696400155 496.70365178741866L997.398075562429 496.70365178741866Q998.3721014935618 512.4774606165984 1008.2205859083499 521.3519191002536Q1018.0420140472731 530.1993213080439 1032.0842212211055 530.1993213080439L1032.0842212211055 530.1993213080439Q1043.5560821877816 530.1993213080439 1051.2671208092502 524.8421786868131Q1058.951103154854 519.4850360655822 1062.0625748793063 510.5294087543326L1062.0625748793063 510.5294087543326L1081.1643056398568 510.5294087543326Q1076.889414053218 525.9244297214052 1064.0106267415722 535.5564639292747Q1051.158895705791 545.2155544130092 1032.0842212211055 545.2155544130092L1032.0842212211055 545.2155544130092Q1016.8785941850865 545.2155544130092 1004.8926639769792 538.397372895079Q992.9067337688718 531.5791913771488 986.0885522509416 518.9980231000158Q979.2703707330114 506.4439110987475 979.2703707330114 489.8854702694885L979.2703707330114 489.8854702694885Q979.2703707330114 473.32702944022947 985.899158319888 460.85408626655567Q992.5279459067646 448.38114309288176 1004.5138761148719 441.67118667841083Q1016.4998063229793 434.96123026393985 1032.0842212211055 434.96123026393985L1032.0842212211055 434.96123026393985Q1047.2627919812596 434.96123026393985 1058.951103154854 441.5629615749516Q1070.6394143284488 448.19174916182817 1076.9705828808123 459.79889150782833Q1083.3017514331762 471.3789775779637 1083.3017514331762 485.98936654495697L1083.3017514331762 485.98936654495697ZM1064.9846526727051 482.28265675147907Q1064.9846526727051 472.163609578043 1060.5203671550128 464.8584150945464Q1056.0290253614555 457.55322061104977 1048.3450430158516 453.73828571411264Q1040.634004394383 449.9504070930403 1031.2995892210263 449.9504070930403L1031.2995892210263 449.9504070930403Q1017.8526201162194 449.9504070930403 1008.4099798394035 458.52724654218264Q998.9673395625875 467.10408599132495 997.5874694934826 482.28265675147907L997.5874694934826 482.28265675147907L1064.9846526727051 482.28265675147907ZM1124.400234471811 454.03590474862546Q1129.0809701964217 444.89088350632227 1137.7660347490232 439.83135991960427Q1146.42404302576 434.74478005702144 1158.8969861994337 434.74478005702144L1158.8969861994337 434.74478005702144L1158.8969861994337 453.0618788174926L1154.216250474823 453.0618788174926Q1124.400234471811 453.0618788174926 1124.400234471811 485.3941284759313L1124.400234471811 485.3941284759313L1124.400234471811 543.456896481797L1106.6783737803653 543.456896481797L1106.6783737803653 436.6928319192872L1124.400234471811 436.6928319192872L1124.400234471811 454.03590474862546ZM1225.9153815165491 545.2155544130092Q1210.8991484115836 545.2155544130092 1198.723824272423 538.397372895079Q1186.5485001332618 531.5791913771488 1179.649149787737 518.9980231000158Q1172.7227431663478 506.4439110987475 1172.7227431663478 489.8854702694885L1172.7227431663478 489.8854702694885Q1172.7227431663478 473.5164233712831 1179.8385437187908 460.96231137001485Q1186.9543442712338 448.38114309288176 1199.2108372379892 441.67118667841083Q1211.4943864806096 434.96123026393985 1226.6729572407635 434.96123026393985L1226.6729572407635 434.96123026393985Q1241.8785842767825 434.96123026393985 1254.1621335194027 441.67118667841083Q1266.4186264861582 448.38114309288176 1273.5344270386013 460.85408626655567Q1280.650227591044 473.32702944022947 1280.650227591044 489.8854702694885L1280.650227591044 489.8854702694885Q1280.650227591044 506.4439110987475 1273.3450331075476 518.9980231000158Q1266.0398386240508 531.5791913771488 1253.5668954503772 538.397372895079Q1241.0939522767032 545.2155544130092 1225.9153815165491 545.2155544130092L1225.9153815165491 545.2155544130092ZM1225.9153815165491 529.6311395148831Q1235.4391906209594 529.6311395148831 1243.8266361390483 525.1397977213259Q1252.2140816571368 520.6755122036335 1257.3547740714494 511.69282861651914Q1262.5225227616265 502.7372013052696 1262.5225227616265 489.8854702694885L1262.5225227616265 489.8854702694885Q1262.5225227616265 477.0337392337074 1257.4629991749086 468.0781119224579Q1252.4034755881905 459.0954283353435 1244.2054240011553 454.71231164524556Q1236.0344286899851 450.32919495514756 1226.48356330971 450.32919495514756L1226.48356330971 450.32919495514756Q1216.7433039983812 450.32919495514756 1208.6534775148052 454.71231164524556Q1200.5907073070941 459.0954283353435 1195.7205776514297 468.0781119224579Q1190.8504479957653 477.0337392337074 1190.8504479957653 489.8854702694885L1190.8504479957653 489.8854702694885Q1190.8504479957653 502.9265952363232 1195.6123525479707 511.9092788234376Q1200.3742571001758 520.8649061346871 1208.3829147561573 525.248022824785Q1216.3645161362738 529.6311395148831 1225.9153815165491 529.6311395148831L1225.9153815165491 529.6311395148831ZM1321.748710629679 454.03590474862546Q1326.4294463542897 444.89088350632227 1335.0874546310263 439.83135991960427Q1343.772519183628 434.74478005702144 1356.218406081437 434.74478005702144L1356.218406081437 434.74478005702144L1356.218406081437 453.0618788174926L1351.564726632691 453.0618788174926Q1321.748710629679 453.0618788174926 1321.748710629679 485.3941284759313L1321.748710629679 485.3941284759313L1321.748710629679 543.456896481797L1304.0268499382332 543.456896481797L1304.0268499382332 436.6928319192872L1321.748710629679 436.6928319192872L1321.748710629679 454.03590474862546ZM1426.1588791919507 451.3032208862804L1398.3179713270692 451.3032208862804L1398.3179713270692 514.2361185478105Q1398.3179713270692 522.0283259968736 1401.6188369825754 525.248022824785Q1404.9197026380812 528.4677196526966 1413.1177542251162 528.4677196526966L1413.1177542251162 528.4677196526966L1426.1588791919507 528.4677196526966L1426.1588791919507 543.456896481797L1410.1956764317174 543.456896481797Q1395.3958935336707 543.456896481797 1387.982473946715 536.6387149638668Q1380.5690543597589 529.8205334459367 1380.5690543597589 514.2361185478105L1380.5690543597589 514.2361185478105L1380.5690543597589 451.3032208862804L1366.743297392845 451.3032208862804L1366.743297392845 436.6928319192872L1380.5690543597589 436.6928319192872L1380.5690543597589 409.82594998553856L1398.3179713270692 409.82594998553856L1398.3179713270692 436.6928319192872L1426.1588791919507 436.6928319192872L1426.1588791919507 451.3032208862804ZM1456.7595271950422 419.37681536581374Q1451.6729473324594 419.37681536581374 1448.1826877459 415.85949950338943Q1444.6653718834757 412.3421836409651 1444.6653718834757 407.2826600542471L1444.6653718834757 407.2826600542471Q1444.6653718834757 402.22313646752906 1448.1826877459 398.70582060510475Q1451.6729473324594 395.2155610185453 1456.7595271950422 395.2155610185453L1456.7595271950422 395.2155610185453Q1461.6296568507066 395.2155610185453 1465.0387476096716 398.70582060510475Q1468.447838368637 402.22313646752906 1468.447838368637 407.2826600542471L1468.447838368637 407.2826600542471Q1468.447838368637 412.3421836409651 1465.0387476096716 415.85949950338943Q1461.6296568507066 419.37681536581374 1456.7595271950422 419.37681536581374L1456.7595271950422 419.37681536581374ZM1447.5874496768743 436.6928319192872L1465.3093103683198 436.6928319192872L1465.3093103683198 543.456896481797L1447.5874496768743 543.456896481797L1447.5874496768743 436.6928319192872ZM1560.7638516193424 451.11382695522684L1508.761689407192 528.8465075148038L1561.1696957573142 528.8465075148038L1561.1696957573142 543.456896481797L1488.4965387844554 543.456896481797L1488.4965387844554 528.8465075148038L1540.3093070655518 451.11382695522684L1488.9023829224275 451.11382695522684L1488.9023829224275 436.6928319192872L1560.7638516193424 436.6928319192872L1560.7638516193424 451.11382695522684ZM1589.795235622275 544.6203163439835Q1584.735712035557 544.6203163439835 1581.218396173133 541.130056757424Q1577.7281365865733 537.6127408949998 1577.7281365865733 532.5532173082818L1577.7281365865733 532.5532173082818Q1577.7281365865733 527.4936937215637 1581.218396173133 523.9763778591393Q1584.735712035557 520.459061996715 1589.795235622275 520.459061996715L1589.795235622275 520.459061996715Q1594.6653652779396 520.459061996715 1598.0744560369044 523.9763778591393Q1601.4835467958696 527.4936937215637 1601.4835467958696 532.5532173082818L1601.4835467958696 532.5532173082818Q1601.4835467958696 537.6127408949998 1598.0744560369044 541.130056757424Q1594.6653652779396 544.6203163439835 1589.795235622275 544.6203163439835L1589.795235622275 544.6203163439835ZM1618.4478317631008 489.69607633843486Q1618.4478317631008 473.32702944022947 1625.0495630741125 460.96231137001485Q1631.678350660989 448.5975932998002 1643.2854930069893 441.77941178187007Q1654.8655790771245 434.96123026393985 1669.286574113064 434.96123026393985L1669.286574113064 434.96123026393985Q1681.7595172867382 434.96123026393985 1692.4738025292 440.69716074727796Q1703.1880877716617 446.433091230616 1708.8157931515402 455.7945626798376L1708.8157931515402 455.7945626798376L1708.8157931515402 399.30105867413045L1726.7541040499045 399.30105867413045L1726.7541040499045 543.456896481797L1708.8157931515402 543.456896481797L1708.8157931515402 523.3811397901137Q1703.5668756337686 532.932005170389 1693.2313782534143 539.073779791699Q1682.9229371489246 545.2155544130092 1669.0971801820106 545.2155544130092L1669.0971801820106 545.2155544130092Q1654.8655790771245 545.2155544130092 1643.2854930069893 538.2079789640254Q1631.678350660989 531.1733472391768 1625.0495630741125 518.5110101344493Q1618.4478317631008 505.84867302972185 1618.4478317631008 489.69607633843486L1618.4478317631008 489.69607633843486ZM1708.8157931515402 489.8854702694885Q1708.8157931515402 477.8183712337867 1703.945663495876 468.83568764667234Q1699.0755338402118 459.88006033542274 1690.796313425582 455.11815578321756Q1682.5170930109525 450.32919495514756 1672.5874397685702 450.32919495514756L1672.5874397685702 450.32919495514756Q1662.6577865261877 450.32919495514756 1654.4867912150173 455.0099306797583Q1646.288739627982 459.69066640436915 1641.4186099723179 468.6462937156187Q1636.5484803166537 477.60192102686824 1636.5484803166537 489.69607633843486L1636.5484803166537 489.69607633843486Q1636.5484803166537 501.9525693051903 1641.4186099723179 511.0164217198991Q1646.288739627982 520.0802741346079 1654.4867912150173 524.8421786868131Q1662.6577865261877 529.6311395148831 1672.5874397685702 529.6311395148831L1672.5874397685702 529.6311395148831Q1682.5170930109525 529.6311395148831 1690.796313425582 524.8421786868131Q1699.0755338402118 520.0802741346079 1703.945663495876 511.0164217198991Q1708.8157931515402 501.9525693051903 1708.8157931515402 489.8854702694885L1708.8157931515402 489.8854702694885ZM1854.1621070972583 485.98936654495697Q1854.1621070972583 491.04889013167497 1853.5668690282328 496.70365178741866L1853.5668690282328 496.70365178741866L1768.2313749506466 496.70365178741866Q1769.205400881779 512.4774606165984 1779.0538852965674 521.3519191002536Q1788.9023697113553 530.1993213080439 1802.9175206093228 530.1993213080439L1802.9175206093228 530.1993213080439Q1814.416437851864 530.1993213080439 1822.1004201974674 524.8421786868131Q1829.8114588189364 519.4850360655822 1832.9229305433887 510.5294087543326L1832.9229305433887 510.5294087543326L1851.9976050280743 510.5294087543326Q1847.7227134414356 525.9244297214052 1834.870982405654 535.5564639292747Q1822.0192513698735 545.2155544130092 1802.9175206093228 545.2155544130092L1802.9175206093228 545.2155544130092Q1787.7118935733038 545.2155544130092 1775.7530196410612 538.397372895079Q1763.767089432954 531.5791913771488 1756.948907915024 518.9980231000158Q1750.1307263970934 506.4439110987475 1750.1307263970934 489.8854702694885L1750.1307263970934 489.8854702694885Q1750.1307263970934 473.32702944022947 1756.75951398397 460.85408626655567Q1763.361245294982 448.38114309288176 1775.3471755030891 441.67118667841083Q1787.3331057111968 434.96123026393985 1802.9175206093228 434.96123026393985L1802.9175206093228 434.96123026393985Q1818.1231476453418 434.96123026393985 1829.8114588189364 441.5629615749516Q1841.4997699925307 448.19174916182817 1847.8309385448947 459.79889150782833Q1854.1621070972583 471.3789775779637 1854.1621070972583 485.98936654495697L1854.1621070972583 485.98936654495697ZM1835.845008336787 482.28265675147907Q1835.845008336787 472.163609578043 1831.3536665432298 464.8584150945464Q1826.8893810255377 457.55322061104977 1819.178342404069 453.73828571411264Q1811.4943600584652 449.9504070930403 1802.1328886092433 449.9504070930403L1802.1328886092433 449.9504070930403Q1788.6859195044367 449.9504070930403 1779.2432792276209 458.52724654218264Q1769.8006389508046 467.10408599132495 1768.4478251575647 482.28265675147907L1768.4478251575647 482.28265675147907L1835.845008336787 482.28265675147907ZM1883.9510668244056 436.6928319192872L1917.2573424139773 527.0878495835916L1950.374224072495 436.6928319192872L1969.2865609019923 436.6928319192872L1927.4034458632782 543.456896481797L1906.7595073784341 543.456896481797L1864.87639233972 436.6928319192872L1883.9510668244056 436.6928319192872Z " fill="#ffffff" transform="matrix(0.44432333547973907,0,0,0.444323335479739,0,91.07225188559605)"/></g></svg>